# xmcd
# 
# Track frame offsets:
#     150
#     53247
#     105022
#     156200
# 
# Disc length: 2814
# 
# Revision: 0
# Processed by: cddbd v1.5.2PL0 Copyright (c) Steve Scherf et al.
# Submitted via: fre:ac v1.0.17
# 
DISCID=230afc04
DTITLE=Die Oktonauten - ...und das Delphinbaby
DYEAR=2015
DGENRE=Other
TTITLE0=01_Die Oktonauten und der Kammzahnschleimfisch
TTITLE1=02_Die Oktonauten und die Quallenblüte
TTITLE2=03_Die Oktonauten und das Delphinbaby
TTITLE3=04_Die Oktonauten und der Gespensterfisch
EXTD=
EXTT0=
EXTT1=
EXTT2=
EXTT3=
PLAYORDER=
